<?xml version="1.0" standalone="no"?>
<!DOCTYPE svg PUBLIC "-//W3C//DTD SVG 20010904//EN"
 "http://www.w3.org/TR/2001/REC-SVG-20010904/DTD/svg10.dtd">
<svg version="1.0" xmlns="http://www.w3.org/2000/svg"
 width="576.000000pt" height="576.000000pt" viewBox="0 0 576.000000 576.000000"
 preserveAspectRatio="xMidYMid meet">
<metadata>
Created by potrace 1.14, written by Peter Selinger 2001-2017
</metadata>
<g transform="translate(0.000000,576.000000) scale(0.100000,-0.100000)"
fill="#000000" stroke="none">
<path d="M2744 5323 c3 -27 8 -123 12 -215 5 -140 9 -168 22 -168 13 0 14 24
8 188 -8 214 -12 242 -33 242 -12 0 -14 -9 -9 -47z"/>
<path d="M3595 5248 c-22 -67 -115 -377 -115 -386 0 -7 6 -12 13 -12 8 0 35
71 72 193 32 105 60 198 63 205 2 6 -3 12 -12 12 -9 0 -19 -6 -21 -12z"/>
<path d="M1911 5181 c-10 -7 6 -53 70 -205 48 -115 88 -196 96 -196 7 0 13 4
13 9 0 6 -158 391 -164 398 -1 1 -8 -2 -15 -6z"/>
<path d="M3206 4978 c-12 -38 -12 -67 0 -72 17 -6 21 1 26 43 3 34 -17 57 -26
29z"/>
<path d="M2470 4963 c0 -35 13 -63 27 -63 12 0 14 7 9 31 -3 17 -6 35 -6 40 0
5 -7 9 -15 9 -8 0 -15 -8 -15 -17z"/>
<path d="M4245 4706 c-71 -94 -129 -173 -127 -176 9 -21 45 14 137 135 152
198 147 191 132 203 -9 7 -46 -35 -142 -162z"/>
<path d="M2776 4663 c6 -152 9 -166 26 -161 12 4 13 106 2 231 -5 48 -11 67
-21 67 -11 0 -12 -24 -7 -137z"/>
<path d="M3170 4763 c0 -5 -9 -60 -20 -123 -24 -137 -24 -150 -7 -150 10 0 20
39 36 133 25 156 25 147 6 147 -8 0 -15 -3 -15 -7z"/>
<path d="M2510 4746 c0 -11 29 -165 46 -243 2 -13 11 -23 19 -23 18 0 20 -17
-10 140 -14 73 -25 134 -25 136 0 2 -7 4 -15 4 -8 0 -15 -6 -15 -14z"/>
<path d="M3890 4718 c-14 -24 -16 -35 -8 -45 6 -8 12 -12 13 -11 34 53 42 77
29 82 -9 4 -22 -6 -34 -26z"/>
<path d="M1183 4709 c-10 -9 1 -26 51 -78 35 -36 101 -107 147 -157 62 -68 87
-89 96 -82 13 11 -12 42 -204 246 -62 66 -81 81 -90 71z"/>
<path d="M1783 4714 c-13 -6 22 -74 37 -74 18 0 19 20 3 49 -19 32 -20 33 -40
25z"/>
<path d="M3426 4703 c-2 -10 -21 -71 -41 -137 -26 -84 -34 -121 -26 -129 6 -6
12 -9 15 -6 4 5 86 272 86 282 0 15 -29 6 -34 -10z"/>
<path d="M2126 4652 c-3 -5 21 -70 52 -145 44 -104 61 -134 72 -127 10 6 1 36
-44 144 -54 128 -67 148 -80 128z"/>
<path d="M2967 4654 c-4 -4 -7 -41 -7 -81 0 -55 3 -74 13 -71 7 3 13 29 15 73
3 64 -5 94 -21 79z"/>
<path d="M2363 4584 c-8 -4 -6 -23 8 -72 10 -37 19 -68 19 -69 0 -2 7 -3 15
-3 8 0 15 6 15 13 0 12 -40 138 -43 136 -1 0 -7 -3 -14 -5z"/>
<path d="M3733 4437 c-37 -67 -69 -124 -71 -128 -2 -4 4 -9 12 -12 11 -4 27
16 57 71 23 42 55 100 71 128 23 42 26 53 14 57 -11 4 -34 -27 -83 -116z"/>
<path d="M1896 4521 c-3 -5 26 -63 65 -129 51 -87 74 -119 85 -115 18 7 23 -3
-61 136 -68 114 -78 126 -89 108z"/>
<path d="M3538 4454 c-26 -62 -28 -84 -9 -84 12 0 64 128 56 139 -12 20 -20
11 -47 -55z"/>
<path d="M3941 4307 c-46 -62 -83 -116 -83 -122 1 -30 30 -3 111 103 70 93 87
122 75 126 -9 3 -16 6 -17 6 -1 -1 -40 -51 -86 -113z"/>
<path d="M1813 4302 c-7 -5 4 -27 35 -69 35 -48 49 -60 59 -52 10 9 3 23 -33
70 -25 32 -46 59 -47 59 -1 0 -7 -4 -14 -8z"/>
<path d="M1565 4290 c-3 -5 27 -45 68 -89 58 -61 77 -89 86 -126 7 -26 25 -77
41 -113 17 -35 30 -69 30 -74 0 -5 -20 2 -45 15 -30 17 -45 21 -45 13 0 -15
43 -77 103 -149 22 -26 37 -50 34 -53 -3 -3 -19 2 -37 11 -72 37 -34 -20 73
-110 37 -31 66 -59 64 -62 -3 -2 -28 6 -56 18 -29 12 -54 19 -57 16 -9 -8 97
-84 144 -102 80 -32 37 -44 -68 -18 -22 6 -23 4 -12 -9 23 -28 115 -61 185
-66 96 -7 101 -22 12 -37 -49 -8 -36 -16 65 -40 41 -10 83 -22 93 -27 31 -16
18 -28 -30 -28 -77 -1 -28 -19 80 -31 114 -12 118 -14 86 -29 -20 -9 -39 -9
-73 -2 -54 11 -60 0 -13 -28 22 -14 50 -20 92 -20 98 0 141 -21 73 -35 -92
-18 -84 -33 21 -42 77 -6 87 -19 30 -39 l-34 -12 28 -11 c16 -6 42 -11 58 -11
l31 0 -31 -52 c-17 -29 -35 -58 -39 -65 -6 -10 -21 -9 -66 3 -32 8 -61 13 -64
10 -6 -7 76 -45 97 -46 18 0 9 -20 -49 -104 -108 -156 -202 -226 -313 -234
-107 -8 -203 54 -264 169 -26 51 -28 62 -28 174 0 111 2 125 29 183 37 80 93
132 142 132 42 0 87 -22 108 -52 22 -31 20 -107 -4 -169 -10 -29 -17 -56 -14
-61 14 -22 46 -4 82 45 22 29 64 82 95 117 l56 65 -32 7 c-28 6 -37 2 -74 -35
l-43 -41 0 32 c0 72 -51 138 -126 162 -20 7 -66 10 -102 8 -124 -7 -226 -80
-285 -206 -30 -63 -32 -74 -32 -182 0 -110 2 -119 32 -181 99 -201 362 -290
576 -195 80 36 150 97 229 202 l71 95 41 -7 c74 -13 168 -7 226 15 66 25 93
26 111 5 11 -14 10 -18 -6 -30 -10 -8 -24 -14 -29 -15 -32 -3 49 -17 102 -18
60 -1 66 1 94 32 29 30 32 31 42 13 37 -61 112 -148 154 -180 180 -131 359
-125 540 21 72 58 42 104 -32 48 -86 -66 -203 -78 -299 -32 -62 31 -130 100
-167 170 l-25 46 30 31 c23 24 37 30 71 30 45 0 144 28 144 41 0 15 -81 77
-107 82 -14 3 -91 2 -169 -1 l-144 -5 -65 32 c-44 22 -95 61 -153 116 l-87 84
77 1 77 0 7 -60 c6 -54 11 -64 42 -90 41 -34 110 -60 158 -60 28 0 39 8 78 59
65 85 121 129 186 147 147 43 264 137 323 261 41 89 44 149 17 343 -24 173
-29 200 -39 200 -18 0 -45 -82 -50 -150 l-6 -75 -24 39 -24 38 -15 -27 c-14
-28 -13 -110 3 -147 11 -27 -12 -22 -37 7 -12 14 -25 25 -29 25 -16 0 -31 -74
-25 -121 6 -41 4 -49 -9 -49 -9 0 -21 14 -27 31 l-11 32 -14 -28 c-8 -15 -13
-41 -11 -57 4 -24 2 -28 -16 -26 -18 3 -22 -3 -24 -34 -3 -34 -6 -38 -30 -38
-45 0 -57 -15 -25 -30 l28 -14 -47 -6 c-69 -9 -78 -24 -26 -40 l43 -13 -60
-14 c-62 -14 -109 -43 -70 -43 22 0 12 -13 -14 -17 -15 -2 -20 6 -25 40 -9 67
-25 240 -36 402 -21 315 -43 409 -105 464 -19 16 -50 33 -68 36 -44 9 -114
-11 -127 -35 -5 -10 -10 -52 -10 -92 0 -156 -38 -388 -101 -616 -29 -102 -33
-111 -48 -99 -25 23 -86 51 -204 95 -203 77 -370 184 -515 331 -107 109 -154
175 -249 346 -28 52 -34 57 -39 38 -6 -21 -10 -18 -56 32 -51 56 -62 63 -73
45z m1379 -685 c9 -132 16 -250 16 -263 0 -21 -3 -22 -99 -22 l-100 0 20 57
c27 79 93 349 115 468 l18 100 7 -50 c4 -27 15 -158 23 -290z m192 -620 c18
-15 18 -16 -20 -49 -41 -35 -36 -46 22 -46 57 0 57 -18 2 -34 -49 -15 -84 -15
-46 0 27 10 18 21 -24 28 -45 7 -45 23 0 50 17 9 30 24 30 32 0 21 -99 17
-185 -7 -38 -10 -116 -29 -173 -41 -56 -11 -100 -23 -98 -25 2 -3 26 -10 53
-17 l48 -13 -73 -8 c-40 -4 -76 -5 -79 -2 -3 3 8 28 23 55 l28 50 31 -15 c29
-14 40 -12 160 20 147 40 266 49 301 22z"/>
<path d="M4455 4260 c-40 -42 -21 -60 24 -22 28 23 31 29 19 40 -12 9 -20 6
-43 -18z"/>
<path d="M4800 4138 c-91 -60 -172 -113 -180 -118 -11 -6 -12 -12 -4 -20 8 -8
57 18 185 101 96 61 176 113 177 114 2 2 0 10 -5 18 -6 10 -44 -10 -173 -95z"/>
<path d="M1227 4233 c-12 -12 -7 -21 23 -43 42 -30 59 -15 24 21 -29 30 -36
34 -47 22z"/>
<path d="M4032 4131 c-38 -44 -48 -62 -39 -69 18 -14 122 102 104 116 -10 9
-25 -2 -65 -47z"/>
<path d="M4212 4051 c-57 -49 -106 -91 -108 -94 -2 -2 1 -9 8 -15 10 -7 40 13
118 81 58 49 105 95 105 100 0 26 -28 10 -123 -72z"/>
<path d="M1394 4089 c-3 -6 -2 -14 2 -18 12 -11 175 -143 197 -160 15 -12 20
-12 27 -1 6 9 -23 38 -100 102 -60 48 -111 88 -114 88 -2 0 -8 -5 -12 -11z"/>
<path d="M667 4023 c-4 -3 -7 -9 -7 -13 0 -11 376 -200 384 -193 3 3 6 10 6
14 0 6 -364 199 -375 199 -1 0 -5 -3 -8 -7z"/>
<path d="M4364 3857 c-112 -72 -119 -78 -112 -98 5 -14 248 142 248 159 0 22
-24 12 -136 -61z"/>
<path d="M1386 3851 c-3 -5 24 -28 60 -52 53 -34 67 -40 74 -28 7 10 -6 23
-50 51 -62 39 -75 44 -84 29z"/>
<path d="M1165 3759 c-4 -6 -5 -12 -4 -14 3 -2 224 -115 260 -133 4 -1 9 4 12
12 5 11 -27 32 -123 81 -71 36 -131 65 -134 65 -3 0 -8 -5 -11 -11z"/>
<path d="M4382 3657 c-47 -25 -60 -35 -51 -44 9 -9 27 -4 75 20 35 17 64 37
64 44 0 20 -19 15 -88 -20z"/>
<path d="M4828 3638 c-25 -9 -40 -38 -19 -38 22 0 71 24 68 33 -5 15 -18 17
-49 5z"/>
<path d="M864 3589 c-8 -14 3 -24 44 -37 29 -10 33 -9 30 5 -4 21 -64 47 -74
32z"/>
<path d="M4523 3522 c-68 -26 -123 -53 -123 -59 0 -20 17 -16 148 33 73 28
122 52 122 60 0 20 -12 17 -147 -34z"/>
<path d="M1070 3507 c0 -8 54 -32 134 -59 111 -38 135 -44 140 -32 3 8 0 17
-7 19 -86 31 -249 85 -257 85 -5 0 -10 -6 -10 -13z"/>
<path d="M5075 3396 c-112 -26 -180 -46 -180 -54 0 -7 4 -13 8 -14 4 -1 98 18
207 43 130 28 200 48 200 57 0 19 -38 13 -235 -32z"/>
<path d="M4695 3310 c-16 -5 -74 -18 -127 -30 -71 -16 -98 -27 -98 -37 0 -18
3 -17 178 23 77 18 112 30 112 40 0 15 -19 17 -65 4z"/>
<path d="M1150 3287 c0 -17 48 -34 109 -39 55 -5 47 18 -11 31 -29 6 -63 14
-75 17 -17 5 -23 2 -23 -9z"/>
<path d="M410 3190 c0 -13 32 -20 193 -39 105 -12 200 -25 210 -28 14 -4 18 0
15 13 -3 16 -29 22 -211 44 -186 23 -207 24 -207 10z"/>
<path d="M970 3117 c0 -10 31 -17 108 -26 59 -7 126 -15 150 -18 35 -5 42 -3
42 11 0 9 -6 16 -12 16 -7 0 -60 7 -118 15 -134 18 -170 19 -170 2z"/>
<path d="M4525 3091 c-32 -7 -37 -24 -8 -29 33 -5 126 13 131 26 4 13 -67 15
-123 3z"/>
<path d="M4510 2905 c0 -13 23 -15 145 -15 122 0 145 2 145 15 0 13 -23 15
-145 15 -122 0 -145 -2 -145 -15z"/>
<path d="M4933 2908 c2 -8 20 -13 42 -13 22 0 40 5 43 13 2 8 -10 12 -43 12
-33 0 -45 -4 -42 -12z"/>
<path d="M747 2864 c-16 -17 -4 -24 39 -24 32 0 44 4 42 13 -5 13 -69 22 -81
11z"/>
<path d="M960 2855 c0 -13 23 -15 145 -15 122 0 145 2 145 15 0 13 -23 15
-145 15 -122 0 -145 -2 -145 -15z"/>
<path d="M1156 2691 c-22 -3 -42 -12 -44 -20 -4 -12 8 -13 67 -8 75 6 95 13
86 28 -7 10 -46 10 -109 0z"/>
<path d="M2776 2645 c-89 -94 -139 -255 -119 -389 6 -39 17 -87 25 -106 l15
-35 25 50 c24 45 92 125 108 125 14 0 80 -78 101 -119 19 -37 21 -48 11 -74
-6 -17 -8 -26 -3 -21 24 24 54 125 58 201 7 96 -8 186 -43 260 -25 52 -107
153 -125 153 -5 0 -29 -20 -53 -45z"/>
<path d="M4490 2676 c0 -9 6 -16 13 -16 6 0 59 -7 117 -15 134 -18 170 -19
170 -2 0 10 -31 17 -107 26 -60 7 -127 15 -150 18 -36 5 -43 3 -43 -11z"/>
<path d="M4932 2624 c3 -16 29 -22 211 -44 186 -23 207 -24 207 -10 0 13 -32
20 -192 39 -106 12 -201 25 -211 28 -14 4 -18 0 -15 -13z"/>
<path d="M2366 2518 c-13 -65 -15 -99 -6 -156 9 -63 52 -168 85 -207 9 -11 13
-14 9 -6 -6 12 2 13 44 8 53 -6 115 -33 168 -73 l31 -23 -24 60 c-33 81 -46
169 -39 256 l7 72 -46 27 c-53 31 -154 64 -196 64 -22 0 -30 -5 -33 -22z"/>
<path d="M3187 2529 c-50 -12 -142 -55 -158 -75 -9 -11 -12 -43 -10 -103 3
-96 -16 -197 -50 -264 l-22 -42 28 27 c43 43 133 83 190 84 47 2 51 4 73 40
51 89 76 232 53 314 -8 29 -40 35 -104 19z"/>
<path d="M1245 2525 c-5 -2 -63 -16 -127 -30 -82 -19 -118 -31 -118 -41 0 -18
-1 -19 148 16 72 17 133 30 136 30 3 0 6 7 6 15 0 14 -21 18 -45 10z"/>
<path d="M4465 2510 c-9 -15 -10 -14 67 -34 81 -19 78 -19 78 -1 0 22 -133 55
-145 35z"/>
<path d="M653 2391 c-131 -30 -203 -50 -203 -58 0 -7 8 -13 18 -13 29 0 386
82 397 91 29 27 -31 21 -212 -20z"/>
<path d="M4416 2344 c-3 -8 0 -17 7 -19 86 -31 249 -85 257 -85 5 0 10 6 10
13 0 8 -54 32 -134 59 -111 38 -135 44 -140 32z"/>
<path d="M1208 2263 c-71 -27 -118 -51 -118 -59 0 -8 3 -14 8 -14 24 0 262 97
262 108 0 20 -28 13 -152 -35z"/>
<path d="M2245 2211 c-68 -20 -116 -43 -134 -65 -10 -12 -9 -20 2 -43 14 -26
13 -30 -4 -52 -10 -13 -19 -38 -19 -57 0 -27 -3 -32 -17 -27 -10 3 -7 -3 7
-13 38 -27 42 -38 17 -44 -16 -5 -22 -13 -22 -35 0 -43 50 -68 127 -62 31 3
63 9 72 14 11 6 -7 7 -49 5 -38 -3 -77 1 -94 8 -30 12 -46 35 -36 51 8 11 54
6 84 -11 13 -7 50 -13 82 -14 31 0 56 -3 54 -6 -2 -3 3 -20 10 -38 14 -33 47
-44 61 -20 4 6 3 8 -4 5 -17 -11 -42 4 -42 24 0 10 10 25 23 33 19 12 32 12
97 -1 94 -20 190 -9 276 32 l59 27 -61 13 c-77 17 -165 61 -229 116 l-50 43
40 -42 c21 -23 37 -42 35 -43 -3 0 -24 -1 -47 -3 -38 -2 -42 0 -47 27 -9 45
-7 89 4 82 5 -3 -6 17 -25 46 -19 28 -35 55 -35 60 0 14 -70 9 -135 -10z m-50
-215 c29 -29 81 -67 116 -85 l62 -31 -58 0 c-118 0 -195 47 -195 119 0 34 6
51 18 51 2 0 28 -24 57 -54z"/>
<path d="M3264 2203 c-65 -106 -125 -169 -205 -216 -25 -15 -79 -36 -119 -46
-72 -18 -73 -19 -49 -34 77 -48 253 -68 342 -38 63 21 127 -17 90 -54 -8 -9
-23 -13 -32 -10 -12 5 -13 3 -5 -5 24 -24 53 -5 68 43 4 12 16 17 43 17 21 1
61 8 88 18 63 22 89 22 93 0 6 -29 -51 -50 -122 -46 -33 2 -70 8 -81 12 -11 4
-7 0 9 -9 44 -26 134 -30 176 -8 28 14 35 24 35 48 0 23 -5 30 -24 35 l-24 5
34 30 c19 16 26 26 17 22 -15 -5 -18 -1 -18 29 0 24 -8 43 -26 61 -22 22 -24
29 -15 50 6 13 11 28 11 32 0 14 -94 60 -155 76 -87 22 -112 20 -131 -12z
m-43 -153 c-6 -33 -10 -35 -49 -38 -23 -2 -42 0 -42 5 0 4 19 27 42 50 47 48
61 42 49 -17z m327 -24 c12 -23 11 -32 -5 -63 -26 -53 -79 -77 -178 -81 l-80
-2 50 26 c28 15 69 42 92 60 23 19 46 34 53 34 6 0 9 4 6 8 -8 13 24 54 37 49
7 -2 18 -16 25 -31z"/>
<path d="M4817 2206 c-4 -10 7 -19 31 -29 20 -8 40 -13 45 -10 16 10 5 23 -29
38 -44 18 -41 18 -47 1z"/>
<path d="M903 2148 c-24 -12 -29 -23 -14 -32 13 -8 71 17 71 31 0 16 -26 16
-57 1z"/>
<path d="M1353 2127 c-35 -17 -63 -37 -63 -44 0 -20 19 -15 88 21 50 25 61 35
50 43 -10 8 -29 3 -75 -20z"/>
<path d="M4327 2135 c-8 -20 250 -152 266 -136 6 6 9 12 6 15 -3 3 -217 113
-260 134 -4 1 -9 -4 -12 -13z"/>
<path d="M3145 2088 l-50 -53 53 50 c28 27 52 51 52 52 0 8 -9 -1 -55 -49z"/>
<path d="M2500 2085 c19 -19 36 -35 39 -35 3 0 -10 16 -29 35 -19 19 -36 35
-39 35 -3 0 10 -16 29 -35z"/>
<path d="M2907 2039 c-23 -32 -103 -41 -142 -16 -24 16 -22 11 14 -26 33 -34
48 -44 60 -37 24 13 100 100 88 100 -3 0 -12 -9 -20 -21z"/>
<path d="M2575 2025 c34 -29 115 -62 178 -71 l42 -7 -44 49 c-25 27 -46 51
-47 52 -1 2 0 -6 3 -19 6 -22 5 -22 -51 -16 -32 3 -70 13 -84 22 -25 15 -24
14 3 -10z"/>
<path d="M2905 1993 l-39 -46 44 7 c51 8 154 52 171 72 9 11 5 11 -17 -1 -40
-21 -128 -21 -120 0 8 22 5 19 -39 -32z"/>
<path d="M1378 1932 c-104 -68 -140 -102 -108 -102 6 0 64 34 130 76 80 52
117 80 113 90 -3 8 -8 14 -12 13 -3 0 -59 -35 -123 -77z"/>
<path d="M4237 1987 c-5 -13 100 -87 122 -87 30 0 13 23 -42 59 -71 46 -73 46
-80 28z"/>
<path d="M1920 1972 c-45 -22 -80 -75 -80 -121 0 -108 133 -169 206 -96 27 27
32 76 11 94 -11 8 -13 5 -9 -17 5 -36 -24 -62 -75 -69 -32 -4 -45 0 -70 21
-79 66 -35 173 79 195 43 9 43 9 8 10 -19 0 -51 -7 -70 -17z"/>
<path d="M3687 1980 c96 -19 145 -91 112 -164 -16 -33 -73 -60 -112 -52 -56
11 -84 55 -55 84 7 7 8 12 2 12 -39 0 -45 -66 -8 -103 48 -48 125 -44 175 9
20 21 24 36 24 84 0 48 -4 63 -25 85 -31 34 -79 55 -122 54 -31 -1 -31 -2 9
-9z"/>
<path d="M4716 1943 c-3 -3 -6 -10 -6 -14 0 -11 371 -200 381 -193 5 3 9 9 9
14 0 11 -376 201 -384 193z"/>
<path d="M4138 1848 c-3 -7 45 -52 105 -101 80 -66 111 -87 120 -78 7 7 7 14
2 20 -28 27 -211 171 -216 171 -4 0 -9 -5 -11 -12z"/>
<path d="M1570 1772 c-36 -32 -85 -74 -110 -95 -33 -28 -41 -40 -32 -49 8 -8
33 8 98 63 47 41 97 83 111 94 21 17 23 23 12 32 -11 9 -28 -2 -79 -45z"/>
<path d="M965 1664 c-88 -58 -166 -108 -173 -112 -7 -5 -10 -15 -7 -24 5 -13
42 7 186 100 162 106 192 131 163 138 -5 2 -81 -45 -169 -102z"/>
<path d="M2132 1733 c-22 -9 -35 -43 -21 -59 13 -16 47 -18 68 -5 8 5 0 8 -24
7 -65 -2 -55 42 11 51 27 3 76 -6 164 -32 89 -26 135 -35 160 -30 43 7 62 7
120 -1 37 -5 50 -2 70 15 l25 20 -41 -14 c-53 -18 -96 -7 -105 26 -4 13 -8 17
-8 9 -1 -13 -2 -13 -12 0 -8 12 -9 10 -7 -9 4 -35 -33 -42 -113 -21 -35 10
-91 25 -124 34 -57 15 -136 20 -163 9z"/>
<path d="M3287 1705 c-128 -37 -167 -36 -167 6 0 12 -5 19 -12 16 -7 -2 -12
-11 -10 -20 4 -26 -62 -39 -112 -22 l-41 14 25 -20 c20 -16 35 -18 75 -14 28
2 59 4 70 4 11 0 40 -1 65 -2 26 -1 94 13 162 32 98 29 124 33 155 25 28 -7
38 -14 38 -29 0 -16 -7 -20 -32 -20 -17 0 -29 -3 -26 -7 5 -10 35 -10 57 -2
23 9 20 40 -6 58 -35 24 -111 18 -241 -19z"/>
<path d="M1703 1650 c-40 -44 -50 -60 -40 -68 9 -8 26 5 64 48 39 43 49 60 40
68 -8 7 -27 -7 -64 -48z"/>
<path d="M2740 1693 c45 -17 66 -73 38 -101 -28 -28 -88 -2 -74 33 7 20 32 19
40 -2 5 -12 10 -13 18 -5 16 16 2 42 -25 42 -50 0 -65 -58 -22 -86 67 -44 128
65 62 111 -12 8 -28 15 -37 14 -13 0 -13 -1 0 -6z"/>
<path d="M2820 1645 c0 -46 -4 -60 -24 -80 -16 -16 -21 -27 -14 -31 6 -4 17 2
25 12 13 18 14 17 11 -11 -2 -21 1 -30 12 -30 10 0 14 9 13 30 -2 28 -1 29 12
11 7 -10 19 -15 25 -11 7 4 2 15 -15 30 -20 20 -25 33 -25 74 0 27 -4 53 -10
56 -6 4 -10 -15 -10 -50z"/>
<path d="M2871 1674 c-12 -15 -21 -35 -21 -46 0 -22 42 -68 62 -68 25 0 58 31
58 55 0 31 -36 58 -62 44 -22 -12 -24 -39 -3 -39 8 0 15 7 15 15 0 20 17 19
29 -2 13 -25 -5 -53 -34 -53 -48 0 -60 67 -19 99 18 14 22 21 11 21 -9 0 -25
-12 -36 -26z"/>
<path d="M3982 1688 c-14 -19 192 -238 208 -222 9 9 -14 40 -91 123 -56 61
-103 111 -104 111 -2 0 -7 -6 -13 -12z"/>
<path d="M1791 1471 c-72 -95 -87 -120 -74 -125 9 -4 21 1 28 11 7 10 47 63
88 117 70 91 82 116 57 116 -5 0 -50 -54 -99 -119z"/>
<path d="M3853 1579 c-16 -16 71 -131 92 -123 12 5 9 15 -15 48 -62 85 -65 87
-77 75z"/>
<path d="M4465 1580 c-6 -9 42 -59 57 -60 22 -1 18 26 -8 47 -32 26 -40 28
-49 13z"/>
<path d="M1281 1522 c-28 -23 -31 -29 -19 -40 12 -9 20 -6 43 18 40 42 21 60
-24 22z"/>
<path d="M3712 1481 c-10 -6 4 -37 58 -127 84 -139 78 -130 91 -117 6 6 -12
46 -57 124 -79 135 -76 130 -92 120z"/>
<path d="M2029 1392 c-23 -42 -55 -100 -71 -128 -23 -42 -26 -53 -14 -57 11
-4 34 27 83 116 37 67 69 124 71 128 2 4 -4 9 -12 12 -11 4 -27 -16 -57 -71z"/>
<path d="M2195 1324 c-20 -48 -25 -68 -17 -76 14 -14 13 -16 45 60 25 59 27
82 8 82 -4 0 -21 -30 -36 -66z"/>
<path d="M3511 1380 c-11 -6 -2 -36 44 -144 31 -75 61 -136 66 -136 21 0 14
27 -39 153 -44 104 -61 134 -71 127z"/>
<path d="M4282 1368 c-16 -20 275 -333 294 -317 11 9 -14 41 -128 163 -78 83
-144 155 -148 159 -4 4 -12 2 -18 -5z"/>
<path d="M2342 1193 c-23 -76 -42 -141 -42 -145 0 -16 29 -7 34 10 2 9 21 70
41 135 33 107 37 137 16 137 -4 0 -26 -62 -49 -137z"/>
<path d="M3340 1311 c0 -5 9 -38 20 -75 15 -47 24 -64 35 -60 12 5 11 12 -1
52 -8 26 -17 57 -20 70 -6 21 -34 32 -34 13z"/>
<path d="M3174 1253 c3 -16 15 -79 27 -140 15 -78 26 -113 35 -113 18 0 18 -1
-6 127 -29 153 -29 153 -46 153 -12 0 -14 -7 -10 -27z"/>
<path d="M2581 1138 c-25 -157 -25 -148 -6 -148 8 0 15 3 15 8 0 4 9 59 20
122 24 137 24 150 7 150 -10 0 -20 -39 -36 -132z"/>
<path d="M2774 1246 c-9 -23 0 -141 11 -141 6 0 11 34 13 78 2 50 -1 77 -8 77
-6 0 -13 -6 -16 -14z"/>
<path d="M2949 1253 c-2 -26 2 -169 7 -225 5 -49 11 -68 21 -68 11 0 12 24 7
138 -3 75 -7 143 -10 150 -4 13 -24 17 -25 5z"/>
<path d="M1488 1073 c-94 -125 -124 -171 -116 -180 8 -10 42 29 138 155 70 92
128 172 129 177 1 6 -4 11 -11 13 -7 1 -70 -73 -140 -165z"/>
<path d="M3926 1112 c-9 -15 32 -72 48 -66 12 5 11 11 -6 40 -20 34 -32 41
-42 26z"/>
<path d="M1843 1060 c-18 -31 -20 -39 -8 -43 24 -10 62 54 42 71 -9 8 -18 1
-34 -28z"/>
<path d="M3670 971 c0 -8 158 -392 164 -398 1 -1 7 2 14 6 10 6 -6 55 -69 205
-49 116 -88 196 -96 196 -7 0 -13 -4 -13 -9z"/>
<path d="M2195 718 c-32 -106 -61 -199 -63 -207 -3 -8 1 -12 13 -10 13 3 31
49 76 194 63 205 65 215 46 215 -8 0 -35 -73 -72 -192z"/>
<path d="M2536 852 c-2 -4 -6 -23 -8 -42 -2 -26 1 -35 12 -35 20 0 32 72 14
79 -7 3 -15 2 -18 -2z"/>
<path d="M3254 829 c3 -17 6 -35 6 -40 0 -5 7 -9 15 -9 8 0 15 8 15 18 0 34
-13 62 -27 62 -12 0 -14 -7 -9 -31z"/>
<path d="M2974 633 c8 -215 12 -243 33 -243 12 0 14 9 9 48 -3 26 -8 122 -12
215 -5 139 -9 167 -22 167 -13 0 -14 -24 -8 -187z"/>
</g>
</svg>
